<svg width="16" height="16" viewBox="0 0 16 16" fill="none" xmlns="http://www.w3.org/2000/svg">
<path d="M10.7934 1.33398H5.20671C2.78004 1.33398 1.33337 2.78065 1.33337 5.20732V10.7873C1.33337 13.2207 2.78004 14.6673 5.20671 14.6673H10.7867C13.2134 14.6673 14.66 13.2207 14.66 10.794V5.20732C14.6667 2.78065 13.22 1.33398 10.7934 1.33398ZM5.11337 3.66732C5.11337 3.39398 5.34004 3.16732 5.61337 3.16732C5.88671 3.16732 6.11337 3.39398 6.11337 3.66732V6.26732C6.11337 6.54065 5.88671 6.76732 5.61337 6.76732C5.34004 6.76732 5.11337 6.54065 5.11337 6.26732V3.66732ZM6.46124 10.9001C6.26441 11.0041 6.11337 11.1938 6.11337 11.4164V12.334C6.11337 12.6073 5.88671 12.834 5.61337 12.834C5.34004 12.834 5.11337 12.6073 5.11337 12.334V11.4164C5.11337 11.1938 4.96229 11.0042 4.76559 10.8999C4.19035 10.5952 3.80004 9.99494 3.80004 9.30065C3.80004 8.30065 4.61337 7.48065 5.61337 7.48065C6.61337 7.48065 7.43337 8.29398 7.43337 9.30065C7.43337 9.99509 7.03819 10.5954 6.46124 10.9001ZM10.8867 12.334C10.8867 12.6073 10.66 12.834 10.3867 12.834C10.1134 12.834 9.88671 12.6073 9.88671 12.334V9.73398C9.88671 9.46065 10.1134 9.23398 10.3867 9.23398C10.66 9.23398 10.8867 9.46065 10.8867 9.73398V12.334ZM10.3867 8.51398C9.38671 8.51398 8.56671 7.70065 8.56671 6.69398C8.56671 5.99955 8.96189 5.3992 9.53884 5.09449C9.73567 4.99054 9.88671 4.80079 9.88671 4.57819V3.66732C9.88671 3.39398 10.1134 3.16732 10.3867 3.16732C10.66 3.16732 10.8867 3.39398 10.8867 3.66732V4.58486C10.8867 4.80746 11.0378 4.99714 11.2345 5.10136C11.8097 5.40612 12.2 6.00636 12.2 6.70065C12.2 7.70065 11.3867 8.51398 10.3867 8.51398Z" fill="#475569"/>
</svg>
