<svg width="16" height="16" viewBox="0 0 16 16" fill="none" xmlns="http://www.w3.org/2000/svg">
<path d="M5.25337 8.04732C5.25337 7.77398 5.48003 7.54732 5.75337 7.54732H9.4067V1.90732C9.40003 1.58732 9.1467 1.33398 8.8267 1.33398C4.90003 1.33398 2.16003 4.07398 2.16003 8.00065C2.16003 11.9273 4.90003 14.6673 8.8267 14.6673C9.14003 14.6673 9.40003 14.414 9.40003 14.094V8.54065H5.75337C5.47337 8.54732 5.25337 8.32065 5.25337 8.04732Z" fill="#475569"/>
<path d="M13.6934 7.69344L11.8 5.79344C11.6067 5.6001 11.2867 5.6001 11.0934 5.79344C10.9 5.98677 10.9 6.30677 11.0934 6.5001L12.1334 7.5401H9.40002V8.5401H12.1267L11.0867 9.5801C10.8934 9.77344 10.8934 10.0934 11.0867 10.2868C11.1867 10.3868 11.3134 10.4334 11.44 10.4334C11.5667 10.4334 11.6934 10.3868 11.7934 10.2868L13.6867 8.38677C13.8867 8.2001 13.8867 7.88677 13.6934 7.69344Z" fill="#475569"/>
</svg>
